<?xml version="1.0" encoding="UTF-8" standalone="no"?>
<!DOCTYPE svg PUBLIC "-//W3C//DTD SVG 1.1//EN"
 "http://www.w3.org/Graphics/SVG/1.1/DTD/svg11.dtd">
<!-- Generated by graphviz version 2.40.1 (0)
 -->
<!-- Title: mtr Pages: 1 -->
<svg width="324pt" height="1273pt"
 viewBox="0.00 0.00 324.00 1272.93" xmlns="http://www.w3.org/2000/svg" xmlns:xlink="http://www.w3.org/1999/xlink">
<g id="graph0" class="graph" transform="scale(1 1) rotate(0) translate(4 1268.9291)">
<title>mtr</title>
<g id="clust1" class="cluster">
<title>cluster_15169</title>
<g id="a_clust1"><a xlink:title="AS: 15169 &#45; [Google]">
<path fill="#608686" fill-opacity="0.188235" stroke="#608686" stroke-width="3" d="M61,-8C61,-8 277,-8 277,-8 283,-8 289,-14 289,-20 289,-20 289,-603 289,-603 289,-609 283,-615 277,-615 277,-615 61,-615 61,-615 55,-615 49,-609 49,-603 49,-603 49,-20 49,-20 49,-14 55,-8 61,-8"/>
<text text-anchor="start" x="137" y="-600.7" font-family="Sans-Serif" font-weight="bold" font-size="11.00" fill="#000000">AS: 15169</text>
<text text-anchor="start" x="147.5" y="-584.5" font-family="Sans-Serif" font-size="10.00" fill="#000000">[Google]</text>
</a>
</g>
</g>
<g id="clust2" class="cluster">
<title>cluster_172_217_10_228</title>
<g id="a_clust2"><a xlink:title="MTR Target: www.google.com">
<defs>
<linearGradient id="l_0" gradientUnits="userSpaceOnUse" x1="169" y1="-111" x2="169" y2="-16" >
<stop offset="0" style="stop-color:#ffffff;stop-opacity:1.;"/>
<stop offset="1" style="stop-color:#a0a0a0;stop-opacity:1.;"/>
</linearGradient>
</defs>
<path fill="url(#l_0)" stroke="#006400" stroke-width="2" d="M69,-16C69,-16 269,-16 269,-16 275,-16 281,-22 281,-28 281,-28 281,-99 281,-99 281,-105 275,-111 269,-111 269,-111 69,-111 69,-111 63,-111 57,-105 57,-99 57,-99 57,-28 57,-28 57,-22 63,-16 69,-16"/>
<text text-anchor="start" x="91" y="-40.2" font-family="Sans-Serif" font-weight="bold" font-size="11.00" fill="#000000">Target: www.google.com</text>
<text text-anchor="start" x="118" y="-24.8" font-family="Sans-Serif" font-size="9.00" fill="#000000">Hop Range (T1: 1 → 9)</text>
</a>
</g>
</g>
<g id="clust3" class="cluster">
<title>cluster_701</title>
<g id="a_clust3"><a xlink:title="AS: 701 &#45; [UUNET, US]">
<path fill="#60baba" fill-opacity="0.188235" stroke="#60baba" stroke-width="3" d="M157,-830.4646C157,-830.4646 281,-830.4646 281,-830.4646 287,-830.4646 293,-836.4646 293,-842.4646 293,-842.4646 293,-909.4646 293,-909.4646 293,-915.4646 287,-921.4646 281,-921.4646 281,-921.4646 157,-921.4646 157,-921.4646 151,-921.4646 145,-915.4646 145,-909.4646 145,-909.4646 145,-842.4646 145,-842.4646 145,-836.4646 151,-830.4646 157,-830.4646"/>
<text text-anchor="start" x="194.5" y="-907.1646" font-family="Sans-Serif" font-weight="bold" font-size="11.00" fill="#000000">AS: 701</text>
<text text-anchor="start" x="188" y="-890.9646" font-family="Sans-Serif" font-size="10.00" fill="#000000">[UUNET, US]</text>
</a>
</g>
</g>
<g id="clust4" class="cluster">
<title>cluster_probe_Title</title>
<g id="a_clust4"><a xlink:title="Multi&#45;Traceroute (MTR) Probe: &#160;10.222.222.10">
<defs>
<linearGradient id="l_1" gradientUnits="userSpaceOnUse" x1="144" y1="-1256.9291" x2="144" y2="-1147.9291" >
<stop offset="0" style="stop-color:#ffffff;stop-opacity:1.;"/>
<stop offset="1" style="stop-color:#a0a0a0;stop-opacity:1.;"/>
</linearGradient>
</defs>
<path fill="url(#l_1)" stroke="#ff8c00" stroke-width="3" d="M20,-1147.9291C20,-1147.9291 268,-1147.9291 268,-1147.9291 274,-1147.9291 280,-1153.9291 280,-1159.9291 280,-1159.9291 280,-1244.9291 280,-1244.9291 280,-1250.9291 274,-1256.9291 268,-1256.9291 268,-1256.9291 20,-1256.9291 20,-1256.9291 14,-1256.9291 8,-1250.9291 8,-1244.9291 8,-1244.9291 8,-1159.9291 8,-1159.9291 8,-1153.9291 14,-1147.9291 20,-1147.9291"/>
<text text-anchor="start" x="51.5" y="-1243.1291" font-family="Sans-Serif" font-weight="bold" font-size="11.00" fill="#000000">Multi&#45;Traceroute (MTR) Probe</text>
<text text-anchor="start" x="94" y="-1227.7291" font-family="Sans-Serif" font-size="9.00" fill="#000000">2020&#45;02&#45;18 16:56:30</text>
<text text-anchor="start" x="33" y="-1213.7291" font-family="Sans-Serif" font-size="9.00" fill="#000000">Target: www.google.com (172.217.10.228 → T1)</text>
</a>
</g>
</g>
<g id="clust5" class="cluster">
<title>cluster_default_gateway</title>
<g id="a_clust5"><a xlink:title="Default Gateway Host: 10.222.222.1">
<defs>
<linearGradient id="l_2" gradientUnits="userSpaceOnUse" x1="219" y1="-1111.9291" x2="219" y2="-1037.9291" >
<stop offset="0" style="stop-color:#ffffff;stop-opacity:1.;"/>
<stop offset="1" style="stop-color:#b8860b;stop-opacity:0.188235;"/>
</linearGradient>
</defs>
<path fill="url(#l_2)" stroke="#daa520" stroke-width="3" d="M142,-1037.9291C142,-1037.9291 296,-1037.9291 296,-1037.9291 302,-1037.9291 308,-1043.9291 308,-1049.9291 308,-1049.9291 308,-1099.9291 308,-1099.9291 308,-1105.9291 302,-1111.9291 296,-1111.9291 296,-1111.9291 142,-1111.9291 142,-1111.9291 136,-1111.9291 130,-1105.9291 130,-1099.9291 130,-1099.9291 130,-1049.9291 130,-1049.9291 130,-1043.9291 136,-1037.9291 142,-1037.9291"/>
<text text-anchor="start" x="177" y="-1099.7291" font-family="Sans-Serif" font-weight="bold" font-size="9.00" fill="#000000">Default Gateway</text>
</a>
</g>
</g>
<!-- 72.14.208.130 -->
<g id="node1" class="node">
<title>72.14.208.130</title>
<g id="a_node1"><a xlink:title="Hop Host: 72.14.208.130">
<defs>
<linearGradient id="l_3" gradientUnits="userSpaceOnUse" x1="219" y1="-568" x2="219" y2="-532" >
<stop offset="0" style="stop-color:#ffffff;stop-opacity:1.;"/>
<stop offset="1" style="stop-color:#608686;stop-opacity:1.;"/>
</linearGradient>
</defs>
<ellipse fill="url(#l_3)" stroke="#608686" cx="219" cy="-550" rx="61.8756" ry="18"/>
<text text-anchor="middle" x="219" y="-547.2" font-family="Sans-Serif" font-size="11.00" fill="#000000">72.14.208.130</text>
</a>
</g>
</g>
<!-- 108.170.225.6 -->
<g id="node2" class="node">
<title>108.170.225.6</title>
<g id="a_node2"><a xlink:title="Hop Host: 108.170.225.6">
<defs>
<linearGradient id="l_4" gradientUnits="userSpaceOnUse" x1="219" y1="-413" x2="219" y2="-377" >
<stop offset="0" style="stop-color:#ffffff;stop-opacity:1.;"/>
<stop offset="1" style="stop-color:#608686;stop-opacity:1.;"/>
</linearGradient>
</defs>
<ellipse fill="url(#l_4)" stroke="#608686" cx="219" cy="-395" rx="61.8756" ry="18"/>
<text text-anchor="middle" x="219" y="-392.2" font-family="Sans-Serif" font-size="11.00" fill="#000000">108.170.225.6</text>
</a>
</g>
</g>
<!-- 72.14.208.130&#45;&gt;108.170.225.6 -->
<g id="edge7" class="edge">
<title>72.14.208.130&#45;&gt;108.170.225.6</title>
<g id="a_edge7"><a xlink:title="Trace: 1:7, 72.14.208.130 &#45;&gt; 108.170.225.6 (RTT: 10.222.222.10 &lt;&#45;&gt; 108.170.225.6 (12.572ms))">
<path fill="none" stroke="#a07070" d="M219,-531.9162C219,-505.3422 219,-455.4757 219,-423.819"/>
<polygon fill="#a07070" stroke="#a07070" points="222.5001,-423.4491 219,-413.4491 215.5001,-423.4491 222.5001,-423.4491"/>
</a>
</g>
<g id="a_edge7&#45;label"><a xlink:title="Trace: 1:7, RTT: 10.222.222.10 &lt;&#45;&gt; 108.170.225.6 (12.572ms)">
<text text-anchor="start" x="219" y="-470.6" font-family="Times,serif" font-size="8.00" fill="#000000">  12.572ms</text>
</a>
</g>
</g>
<!-- 172.253.70.15 -->
<g id="node3" class="node">
<title>172.253.70.15</title>
<g id="a_node3"><a xlink:title="Hop Host: 172.253.70.15">
<defs>
<linearGradient id="l_5" gradientUnits="userSpaceOnUse" x1="219" y1="-258" x2="219" y2="-222" >
<stop offset="0" style="stop-color:#ffffff;stop-opacity:1.;"/>
<stop offset="1" style="stop-color:#608686;stop-opacity:1.;"/>
</linearGradient>
</defs>
<ellipse fill="url(#l_5)" stroke="#608686" cx="219" cy="-240" rx="61.8756" ry="18"/>
<text text-anchor="middle" x="219" y="-237.2" font-family="Sans-Serif" font-size="11.00" fill="#000000">172.253.70.15</text>
</a>
</g>
</g>
<!-- 108.170.225.6&#45;&gt;172.253.70.15 -->
<g id="edge8" class="edge">
<title>108.170.225.6&#45;&gt;172.253.70.15</title>
<g id="a_edge8"><a xlink:title="Trace: 1:8, 108.170.225.6 &#45;&gt; 172.253.70.15 (RTT: 10.222.222.10 &lt;&#45;&gt; 172.253.70.15 (12.024ms))">
<path fill="none" stroke="#a07070" d="M219,-376.9162C219,-350.3422 219,-300.4757 219,-268.819"/>
<polygon fill="#a07070" stroke="#a07070" points="222.5001,-268.4491 219,-258.4491 215.5001,-268.4491 222.5001,-268.4491"/>
</a>
</g>
<g id="a_edge8&#45;label"><a xlink:title="Trace: 1:8, RTT: 10.222.222.10 &lt;&#45;&gt; 172.253.70.15 (12.024ms)">
<text text-anchor="start" x="219" y="-315.6" font-family="Times,serif" font-size="8.00" fill="#000000">  12.024ms</text>
</a>
</g>
</g>
<!-- 172.217.10.228 -->
<g id="node4" class="node">
<title>172.217.10.228</title>
<g id="a_node4"><a xlink:title="MTR Resolved Target: 172.217.10.228">
<defs>
<linearGradient id="l_6" gradientUnits="userSpaceOnUse" x1="169" y1="-102.5" x2="169" y2="-62.5" >
<stop offset="0" style="stop-color:#006400;stop-opacity:1.;"/>
<stop offset="1" style="stop-color:#00ff00;stop-opacity:1.;"/>
</linearGradient>
</defs>
<path fill="url(#l_6)" stroke="#000000" d="M77.5,-62.5C77.5,-62.5 260.5,-62.5 260.5,-62.5 266.5,-62.5 272.5,-68.5 272.5,-74.5 272.5,-74.5 272.5,-90.5 272.5,-90.5 272.5,-96.5 266.5,-102.5 260.5,-102.5 260.5,-102.5 77.5,-102.5 77.5,-102.5 71.5,-102.5 65.5,-96.5 65.5,-90.5 65.5,-90.5 65.5,-74.5 65.5,-74.5 65.5,-68.5 71.5,-62.5 77.5,-62.5"/>
<text text-anchor="middle" x="120.5" y="-85.7" font-family="Sans-Serif" font-size="11.00" fill="#000000">Resolved Target</text>
<text text-anchor="middle" x="120.5" y="-73.7" font-family="Sans-Serif" font-size="11.00" fill="#000000">172.217.10.228</text>
<polyline fill="none" stroke="#000000" points="175.5,-62.5 175.5,-102.5 "/>
<text text-anchor="middle" x="224" y="-89.7" font-family="Sans-Serif" font-size="11.00" fill="#000000">T1</text>
<polyline fill="none" stroke="#000000" points="175.5,-82.5 272.5,-82.5 "/>
<text text-anchor="middle" x="224" y="-69.7" font-family="Sans-Serif" font-size="11.00" fill="#000000">https(443) SA</text>
</a>
</g>
</g>
<!-- 172.253.70.15&#45;&gt;172.217.10.228 -->
<g id="edge9" class="edge">
<title>172.253.70.15&#45;&gt;172.217.10.228:n</title>
<g id="a_edge9"><a xlink:title="Trace: 1:9, 172.253.70.15 &#45;&gt; 172.217.10.228 (RTT: 10.222.222.10 &lt;&#45;&gt; 172.217.10.228 (12.779ms))">
<path fill="none" stroke="#a07070" d="M220.0849,-221.7695C221.4406,-197.503 223.624,-152.9545 223.9569,-112.6426"/>
<polygon fill="#a07070" stroke="#a07070" points="227.4573,-112.5148 224,-102.5 220.4574,-112.485 227.4573,-112.5148"/>
</a>
</g>
<g id="a_edge9&#45;label"><a xlink:title="Trace: 1:9, RTT: 10.222.222.10 &lt;&#45;&gt; 172.217.10.228 (12.779ms)">
<text text-anchor="start" x="222" y="-160.6" font-family="Times,serif" font-size="8.00" fill="#000000">  12.779ms</text>
</a>
</g>
</g>
<!-- 100.41.140.154 -->
<g id="node5" class="node">
<title>100.41.140.154</title>
<g id="a_node5"><a xlink:title="Hop Host: 100.41.140.154">
<defs>
<linearGradient id="l_7" gradientUnits="userSpaceOnUse" x1="219" y1="-874.4646" x2="219" y2="-838.4646" >
<stop offset="0" style="stop-color:#ffffff;stop-opacity:1.;"/>
<stop offset="1" style="stop-color:#60baba;stop-opacity:1.;"/>
</linearGradient>
</defs>
<ellipse fill="url(#l_7)" stroke="#60baba" cx="219" cy="-856.4646" rx="66.2946" ry="18"/>
<text text-anchor="middle" x="219" y="-853.6646" font-family="Sans-Serif" font-size="11.00" fill="#000000">100.41.140.154</text>
</a>
</g>
</g>
<!-- Unk1 -->
<g id="node9" class="node">
<title>Unk1</title>
<g id="a_node9"><a xlink:title="Trace: 1:4, Unknown Hop: Unk1">
<defs>
<linearGradient id="l_8" gradientUnits="userSpaceOnUse" x1="219" y1="-783.7012" x2="219" y2="-757.7634" >
<stop offset="0" style="stop-color:#ffffff;stop-opacity:1.;"/>
<stop offset="1" style="stop-color:#d8d8d8;stop-opacity:1.;"/>
</linearGradient>
</defs>
<polygon fill="url(#l_8)" stroke="#000000" points="221.8454,-757.7989 223.7292,-757.8699 225.5936,-757.9762 227.4309,-758.1174 229.2336,-758.2932 230.9946,-758.5031 232.7069,-758.7465 234.3638,-759.0227 235.959,-759.3311 237.4866,-759.6707 238.9411,-760.0406 240.3175,-760.4398 241.6111,-760.8673 242.8179,-761.3218 243.9342,-761.802 244.9571,-762.3068 245.8839,-762.8346 246.7127,-763.3841 247.4421,-763.9537 248.0711,-764.5419 248.5993,-765.1471 249.0268,-765.7676 249.3541,-766.4017 249.5825,-767.0477 249.7133,-767.7037 249.7485,-768.3681 249.6904,-769.0389 249.5416,-769.7144 249.3052,-770.3927 248.9845,-771.0719 248.5828,-771.7502 248.104,-772.4256 247.552,-773.0965 246.9307,-773.7608 246.2443,-774.4169 245.4969,-775.0629 244.6928,-775.697 243.836,-776.3174 242.9307,-776.9226 241.9809,-777.5108 240.9906,-778.0805 239.9635,-778.6299 238.9033,-779.1578 237.8134,-779.6625 236.6971,-780.1428 235.5574,-780.5973 234.3971,-781.0247 233.219,-781.4239 232.0255,-781.7939 230.8186,-782.1335 229.6005,-782.4418 228.3729,-782.7181 227.1374,-782.9615 225.8954,-783.1714 224.6483,-783.3472 223.3971,-783.4884 222.1429,-783.5946 220.8865,-783.6656 219.629,-783.7012 218.371,-783.7012 217.1135,-783.6656 215.8571,-783.5946 214.6029,-783.4884 213.3517,-783.3472 212.1046,-783.1714 210.8626,-782.9615 209.6271,-782.7181 208.3995,-782.4418 207.1814,-782.1335 205.9745,-781.7939 204.781,-781.4239 203.6029,-781.0247 202.4426,-780.5973 201.3029,-780.1428 200.1866,-779.6625 199.0967,-779.1578 198.0365,-778.6299 197.0094,-778.0805 196.0191,-777.5108 195.0693,-776.9226 194.164,-776.3174 193.3072,-775.697 192.5031,-775.0629 191.7557,-774.4169 191.0693,-773.7608 190.448,-773.0965 189.896,-772.4256 189.4172,-771.7502 189.0155,-771.0719 188.6948,-770.3927 188.4584,-769.7144 188.3096,-769.0389 188.2515,-768.3681 188.2867,-767.7037 188.4175,-767.0477 188.6459,-766.4017 188.9732,-765.7676 189.4007,-765.1471 189.9289,-764.5419 190.5579,-763.9537 191.2873,-763.3841 192.1161,-762.8346 193.0429,-762.3068 194.0658,-761.802 195.1821,-761.3218 196.3889,-760.8673 197.6825,-760.4398 199.0589,-760.0406 200.5134,-759.6707 202.041,-759.3311 203.6362,-759.0227 205.2931,-758.7465 207.0054,-758.5031 208.7664,-758.2932 210.5691,-758.1174 212.4064,-757.9762 214.2708,-757.8699 216.1546,-757.7989 218.0502,-757.7634 219.9498,-757.7634 221.8454,-757.7989"/>
<text text-anchor="middle" x="219" y="-768.5323" font-family="Sans-Serif" font-size="9.00" fill="#000000">Unk1</text>
</a>
</g>
</g>
<!-- 100.41.140.154&#45;&gt;Unk1 -->
<g id="edge4" class="edge">
<title>100.41.140.154&#45;&gt;Unk1</title>
<g id="a_edge4"><a xlink:title="Trace: 1:4, 100.41.140.154 &#45;&gt; Unk1">
<path fill="none" stroke="#a07070" d="M219,-838.283C219,-825.329 219,-807.8129 219,-793.8635"/>
<polygon fill="#a07070" stroke="#a07070" points="222.5001,-793.5962 219,-783.5963 215.5001,-793.5963 222.5001,-793.5962"/>
</a>
</g>
</g>
<!-- 10.222.222.10 -->
<g id="node6" class="node">
<title>10.222.222.10</title>
<g id="a_node6"><a xlink:title="Begin Host Probe: 10.222.222.10">
<defs>
<linearGradient id="l_9" gradientUnits="userSpaceOnUse" x1="144" y1="-1196.4291" x2="144" y2="-1156.4291" >
<stop offset="0" style="stop-color:#ffffff;stop-opacity:1.;"/>
<stop offset="1" style="stop-color:#ff8c00;stop-opacity:1.;"/>
</linearGradient>
</defs>
<path fill="url(#l_9)" stroke="#000000" d="M28.5,-1156.4291C28.5,-1156.4291 259.5,-1156.4291 259.5,-1156.4291 265.5,-1156.4291 271.5,-1162.4291 271.5,-1168.4291 271.5,-1168.4291 271.5,-1184.4291 271.5,-1184.4291 271.5,-1190.4291 265.5,-1196.4291 259.5,-1196.4291 259.5,-1196.4291 28.5,-1196.4291 28.5,-1196.4291 22.5,-1196.4291 16.5,-1190.4291 16.5,-1184.4291 16.5,-1184.4291 16.5,-1168.4291 16.5,-1168.4291 16.5,-1162.4291 22.5,-1156.4291 28.5,-1156.4291"/>
<text text-anchor="middle" x="91" y="-1179.6291" font-family="Sans-Serif" font-size="11.00" fill="#000000">Probe: 10.222.222.10</text>
<text text-anchor="middle" x="91" y="-1167.6291" font-family="Sans-Serif" font-size="11.00" fill="#000000">Network Interface: lan0</text>
<polyline fill="none" stroke="#000000" points="165.5,-1156.4291 165.5,-1196.4291 "/>
<text text-anchor="middle" x="218.5" y="-1183.6291" font-family="Sans-Serif" font-size="11.00" fill="#000000">TCP: https(443)</text>
<polyline fill="none" stroke="#000000" points="165.5,-1176.4291 271.5,-1176.4291 "/>
<text text-anchor="middle" x="218.5" y="-1163.6291" font-family="Sans-Serif" font-size="11.00" fill="#000000">T1</text>
</a>
</g>
</g>
<!-- 10.222.222.1 -->
<g id="node7" class="node">
<title>10.222.222.1</title>
<g id="a_node7"><a xlink:title="Default Gateway Host: 10.222.222.1">
<defs>
<linearGradient id="l_10" gradientUnits="userSpaceOnUse" x1="219" y1="-1080.6211" x2="219" y2="-1047.2372" >
<stop offset="0" style="stop-color:#ffffff;stop-opacity:1.;"/>
<stop offset="1" style="stop-color:#daa520;stop-opacity:1.;"/>
</linearGradient>
</defs>
<path fill="url(#l_10)" stroke="#000000" d="M207.2886,-1079.3131C207.2886,-1079.3131 150.131,-1066.5452 150.131,-1066.5452 144.2753,-1065.2372 144.2753,-1062.6211 150.131,-1061.3131 150.131,-1061.3131 207.2886,-1048.5452 207.2886,-1048.5452 213.1443,-1047.2372 224.8557,-1047.2372 230.7114,-1048.5452 230.7114,-1048.5452 287.869,-1061.3131 287.869,-1061.3131 293.7247,-1062.6211 293.7247,-1065.2372 287.869,-1066.5452 287.869,-1066.5452 230.7114,-1079.3131 230.7114,-1079.3131 224.8557,-1080.6211 213.1443,-1080.6211 207.2886,-1079.3131"/>
<text text-anchor="middle" x="219" y="-1061.1291" font-family="Sans-Serif" font-size="11.00" fill="#000000">10.222.222.1</text>
</a>
</g>
</g>
<!-- 10.222.222.10&#45;&gt;10.222.222.1 -->
<g id="edge1" class="edge">
<title>10.222.222.10:s&#45;&gt;10.222.222.1</title>
<g id="a_edge1"><a xlink:title="Trace: 1:1, 10.222.222.10 &#45;&gt; 10.222.222.1 (RTT: 10.222.222.10 &lt;&#45;&gt; 10.222.222.1 (0.360ms))">
<path fill="none" stroke="#a07070" d="M219,-1156.4291C219,-1134.8159 219,-1110.3621 219,-1092.028"/>
<polygon fill="#a07070" stroke="#a07070" points="222.5001,-1092.0081 219,-1082.0081 215.5001,-1092.0082 222.5001,-1092.0081"/>
</a>
</g>
<g id="a_edge1&#45;label"><a xlink:title="Trace: 1:1, RTT: 10.222.222.10 &lt;&#45;&gt; 10.222.222.1 (0.360ms)">
<text text-anchor="start" x="219" y="-1122.5291" font-family="Times,serif" font-size="8.00" fill="#000000">  0.360ms</text>
</a>
</g>
</g>
<!-- Unk0 -->
<g id="node8" class="node">
<title>Unk0</title>
<g id="a_node8"><a xlink:title="Trace: 1:2, Unknown Hop: Unk0">
<defs>
<linearGradient id="l_11" gradientUnits="userSpaceOnUse" x1="219" y1="-991.1657" x2="219" y2="-965.228" >
<stop offset="0" style="stop-color:#ffffff;stop-opacity:1.;"/>
<stop offset="1" style="stop-color:#d8d8d8;stop-opacity:1.;"/>
</linearGradient>
</defs>
<polygon fill="url(#l_11)" stroke="#000000" points="221.8454,-965.2635 223.7292,-965.3345 225.5936,-965.4408 227.4309,-965.582 229.2336,-965.7578 230.9946,-965.9677 232.7069,-966.2111 234.3638,-966.4873 235.959,-966.7957 237.4866,-967.1353 238.9411,-967.5052 240.3175,-967.9044 241.6111,-968.3319 242.8179,-968.7863 243.9342,-969.2666 244.9571,-969.7713 245.8839,-970.2992 246.7127,-970.8487 247.4421,-971.4183 248.0711,-972.0065 248.5993,-972.6117 249.0268,-973.2322 249.3541,-973.8663 249.5825,-974.5122 249.7133,-975.1683 249.7485,-975.8327 249.6904,-976.5035 249.5416,-977.179 249.3052,-977.8573 248.9845,-978.5365 248.5828,-979.2147 248.104,-979.8902 247.552,-980.5611 246.9307,-981.2254 246.2443,-981.8815 245.4969,-982.5274 244.6928,-983.1615 243.836,-983.782 242.9307,-984.3872 241.9809,-984.9754 240.9906,-985.545 239.9635,-986.0945 238.9033,-986.6224 237.8134,-987.1271 236.6971,-987.6074 235.5574,-988.0619 234.3971,-988.4893 233.219,-988.8885 232.0255,-989.2584 230.8186,-989.598 229.6005,-989.9064 228.3729,-990.1827 227.1374,-990.4261 225.8954,-990.6359 224.6483,-990.8117 223.3971,-990.9529 222.1429,-991.0592 220.8865,-991.1302 219.629,-991.1657 218.371,-991.1657 217.1135,-991.1302 215.8571,-991.0592 214.6029,-990.9529 213.3517,-990.8117 212.1046,-990.6359 210.8626,-990.4261 209.6271,-990.1827 208.3995,-989.9064 207.1814,-989.598 205.9745,-989.2584 204.781,-988.8885 203.6029,-988.4893 202.4426,-988.0619 201.3029,-987.6074 200.1866,-987.1271 199.0967,-986.6224 198.0365,-986.0945 197.0094,-985.545 196.0191,-984.9754 195.0693,-984.3872 194.164,-983.782 193.3072,-983.1615 192.5031,-982.5274 191.7557,-981.8815 191.0693,-981.2254 190.448,-980.5611 189.896,-979.8902 189.4172,-979.2147 189.0155,-978.5365 188.6948,-977.8573 188.4584,-977.179 188.3096,-976.5035 188.2515,-975.8327 188.2867,-975.1683 188.4175,-974.5122 188.6459,-973.8663 188.9732,-973.2322 189.4007,-972.6117 189.9289,-972.0065 190.5579,-971.4183 191.2873,-970.8487 192.1161,-970.2992 193.0429,-969.7713 194.0658,-969.2666 195.1821,-968.7863 196.3889,-968.3319 197.6825,-967.9044 199.0589,-967.5052 200.5134,-967.1353 202.041,-966.7957 203.6362,-966.4873 205.2931,-966.2111 207.0054,-965.9677 208.7664,-965.7578 210.5691,-965.582 212.4064,-965.4408 214.2708,-965.3345 216.1546,-965.2635 218.0502,-965.228 219.9498,-965.228 221.8454,-965.2635"/>
<text text-anchor="middle" x="219" y="-975.9969" font-family="Sans-Serif" font-size="9.00" fill="#000000">Unk0</text>
</a>
</g>
</g>
<!-- 10.222.222.1&#45;&gt;Unk0 -->
<g id="edge2" class="edge">
<title>10.222.222.1&#45;&gt;Unk0</title>
<g id="a_edge2"><a xlink:title="Trace: 1:2, 10.222.222.1 &#45;&gt; Unk0">
<path fill="none" stroke="#a07070" d="M219,-1045.7475C219,-1032.7936 219,-1015.2775 219,-1001.328"/>
<polygon fill="#a07070" stroke="#a07070" points="222.5001,-1001.0608 219,-991.0608 215.5001,-1001.0609 222.5001,-1001.0608"/>
</a>
</g>
</g>
<!-- Unk0&#45;&gt;100.41.140.154 -->
<g id="edge3" class="edge">
<title>Unk0&#45;&gt;100.41.140.154</title>
<g id="a_edge3"><a xlink:title="Trace: 1:3, Unk0 &#45;&gt; 100.41.140.154 (RTT: 10.222.222.10 &lt;&#45;&gt; 100.41.140.154 (1.045ms))">
<path fill="none" stroke="#a07070" d="M219,-965.1694C219,-946.0635 219,-909.9686 219,-884.629"/>
<polygon fill="#a07070" stroke="#a07070" points="222.5001,-884.5084 219,-874.5085 215.5001,-884.5085 222.5001,-884.5084"/>
</a>
</g>
<g id="a_edge3&#45;label"><a xlink:title="Trace: 1:3, RTT: 10.222.222.10 &lt;&#45;&gt; 100.41.140.154 (1.045ms)">
<text text-anchor="start" x="219" y="-932.0646" font-family="Times,serif" font-size="8.00" fill="#000000">  1.045ms</text>
</a>
</g>
</g>
<!-- 140.222.1.43 -->
<g id="node10" class="node">
<title>140.222.1.43</title>
<g id="a_node10"><a xlink:title="Hop Host: 140.222.1.43">
<defs>
<linearGradient id="l_12" gradientUnits="userSpaceOnUse" x1="219" y1="-695" x2="219" y2="-659" >
<stop offset="0" style="stop-color:#ffffff;stop-opacity:1.;"/>
<stop offset="1" style="stop-color:#a0a0a0;stop-opacity:1.;"/>
</linearGradient>
</defs>
<ellipse fill="url(#l_12)" stroke="#000000" cx="219" cy="-677" rx="57.2545" ry="18"/>
<text text-anchor="middle" x="219" y="-674.2" font-family="Sans-Serif" font-size="11.00" fill="#000000">140.222.1.43</text>
</a>
</g>
</g>
<!-- Unk1&#45;&gt;140.222.1.43 -->
<g id="edge5" class="edge">
<title>Unk1&#45;&gt;140.222.1.43</title>
<g id="a_edge5"><a xlink:title="Trace: 1:5, Unk1 &#45;&gt; 140.222.1.43 (RTT: 10.222.222.10 &lt;&#45;&gt; 140.222.1.43 (7.083ms))">
<path fill="none" stroke="#a07070" d="M219,-757.6992C219,-744.2023 219,-722.6894 219,-705.2685"/>
<polygon fill="#a07070" stroke="#a07070" points="222.5001,-705.0586 219,-695.0587 215.5001,-705.0587 222.5001,-705.0586"/>
</a>
</g>
<g id="a_edge5&#45;label"><a xlink:title="Trace: 1:5, RTT: 10.222.222.10 &lt;&#45;&gt; 140.222.1.43 (7.083ms)">
<text text-anchor="start" x="219" y="-724.6" font-family="Times,serif" font-size="8.00" fill="#000000">  7.083ms</text>
</a>
</g>
</g>
<!-- 140.222.1.43&#45;&gt;72.14.208.130 -->
<g id="edge6" class="edge">
<title>140.222.1.43&#45;&gt;72.14.208.130</title>
<g id="a_edge6"><a xlink:title="Trace: 1:6, 140.222.1.43 &#45;&gt; 72.14.208.130 (RTT: 10.222.222.10 &lt;&#45;&gt; 72.14.208.130 (11.602ms))">
<path fill="none" stroke="#a07070" d="M219,-658.804C219,-637.7735 219,-602.9094 219,-578.3236"/>
<polygon fill="#a07070" stroke="#a07070" points="222.5001,-578.1622 219,-568.1622 215.5001,-578.1623 222.5001,-578.1622"/>
</a>
</g>
<g id="a_edge6&#45;label"><a xlink:title="Trace: 1:6, RTT: 10.222.222.10 &lt;&#45;&gt; 72.14.208.130 (11.602ms)">
<text text-anchor="start" x="219" y="-625.6" font-family="Times,serif" font-size="8.00" fill="#000000">  11.602ms</text>
</a>
</g>
</g>
</g>
</svg>
