<?xml version="1.0" encoding="UTF-8" standalone="no"?>
<!DOCTYPE svg PUBLIC "-//W3C//DTD SVG 1.1//EN"
 "http://www.w3.org/Graphics/SVG/1.1/DTD/svg11.dtd">
<!-- Generated by graphviz version 2.40.1 (0)
 -->
<!-- Title: mtr Pages: 1 -->
<svg width="477pt" height="1113pt"
 viewBox="0.00 0.00 477.00 1112.93" xmlns="http://www.w3.org/2000/svg" xmlns:xlink="http://www.w3.org/1999/xlink">
<g id="graph0" class="graph" transform="scale(1 1) rotate(0) translate(4 1108.9291)">
<title>mtr</title>
<g id="clust1" class="cluster">
<title>cluster_15169</title>
<g id="a_clust1"><a xlink:title="AS: 15169 &#45; [Google]">
<path fill="#608686" fill-opacity="0.188235" stroke="#608686" stroke-width="3" d="M56,-8C56,-8 272,-8 272,-8 278,-8 284,-14 284,-20 284,-20 284,-146 284,-146 284,-152 278,-158 272,-158 272,-158 56,-158 56,-158 50,-158 44,-152 44,-146 44,-146 44,-20 44,-20 44,-14 50,-8 56,-8"/>
<text text-anchor="start" x="132" y="-143.7" font-family="Sans-Serif" font-weight="bold" font-size="11.00" fill="#000000">AS: 15169</text>
<text text-anchor="start" x="142.5" y="-127.5" font-family="Sans-Serif" font-size="10.00" fill="#000000">[Google]</text>
</a>
</g>
</g>
<g id="clust2" class="cluster">
<title>cluster_172_217_12_132</title>
<g id="a_clust2"><a xlink:title="MTR Target: www.google.com">
<defs>
<linearGradient id="l_0" gradientUnits="userSpaceOnUse" x1="164" y1="-111" x2="164" y2="-16" >
<stop offset="0" style="stop-color:#ffffff;stop-opacity:1.;"/>
<stop offset="1" style="stop-color:#a0a0a0;stop-opacity:1.;"/>
</linearGradient>
</defs>
<path fill="url(#l_0)" stroke="#006400" stroke-width="2" d="M64,-16C64,-16 264,-16 264,-16 270,-16 276,-22 276,-28 276,-28 276,-99 276,-99 276,-105 270,-111 264,-111 264,-111 64,-111 64,-111 58,-111 52,-105 52,-99 52,-99 52,-28 52,-28 52,-22 58,-16 64,-16"/>
<text text-anchor="start" x="86" y="-40.2" font-family="Sans-Serif" font-weight="bold" font-size="11.00" fill="#000000">Target: www.google.com</text>
<text text-anchor="start" x="113" y="-24.8" font-family="Sans-Serif" font-size="9.00" fill="#000000">Hop Range (T1: 1 → 9)</text>
</a>
</g>
</g>
<g id="clust3" class="cluster">
<title>cluster_701</title>
<g id="a_clust3"><a xlink:title="AS: 701 &#45; [UUNET &#45; MCI Communications Services, Inc. d/b/a Verizon Business, US]">
<path fill="#60baba" fill-opacity="0.188235" stroke="#60baba" stroke-width="3" d="M98,-670.4646C98,-670.4646 449,-670.4646 449,-670.4646 455,-670.4646 461,-676.4646 461,-682.4646 461,-682.4646 461,-749.4646 461,-749.4646 461,-755.4646 455,-761.4646 449,-761.4646 449,-761.4646 98,-761.4646 98,-761.4646 92,-761.4646 86,-755.4646 86,-749.4646 86,-749.4646 86,-682.4646 86,-682.4646 86,-676.4646 92,-670.4646 98,-670.4646"/>
<text text-anchor="start" x="249.5" y="-747.1646" font-family="Sans-Serif" font-weight="bold" font-size="11.00" fill="#000000">AS: 701</text>
<text text-anchor="start" x="96.5" y="-730.9646" font-family="Sans-Serif" font-size="10.00" fill="#000000">[UUNET &#45; MCI Communications Services, Inc. d/b/a Verizon Business, US]</text>
</a>
</g>
</g>
<g id="clust4" class="cluster">
<title>cluster_probe_Title</title>
<g id="a_clust4"><a xlink:title="Multi&#45;Traceroute (MTR) Probe: &#160;10.222.222.10">
<defs>
<linearGradient id="l_1" gradientUnits="userSpaceOnUse" x1="144" y1="-1096.9291" x2="144" y2="-987.9291" >
<stop offset="0" style="stop-color:#ffffff;stop-opacity:1.;"/>
<stop offset="1" style="stop-color:#a0a0a0;stop-opacity:1.;"/>
</linearGradient>
</defs>
<path fill="url(#l_1)" stroke="#ff8c00" stroke-width="3" d="M20,-987.9291C20,-987.9291 268,-987.9291 268,-987.9291 274,-987.9291 280,-993.9291 280,-999.9291 280,-999.9291 280,-1084.9291 280,-1084.9291 280,-1090.9291 274,-1096.9291 268,-1096.9291 268,-1096.9291 20,-1096.9291 20,-1096.9291 14,-1096.9291 8,-1090.9291 8,-1084.9291 8,-1084.9291 8,-999.9291 8,-999.9291 8,-993.9291 14,-987.9291 20,-987.9291"/>
<text text-anchor="start" x="51.5" y="-1083.1291" font-family="Sans-Serif" font-weight="bold" font-size="11.00" fill="#000000">Multi&#45;Traceroute (MTR) Probe</text>
<text text-anchor="start" x="94" y="-1067.7291" font-family="Sans-Serif" font-size="9.00" fill="#000000">2020&#45;01&#45;14 08:29:39</text>
<text text-anchor="start" x="33" y="-1053.7291" font-family="Sans-Serif" font-size="9.00" fill="#000000">Target: www.google.com (172.217.12.132 → T1)</text>
</a>
</g>
</g>
<g id="clust5" class="cluster">
<title>cluster_default_gateway</title>
<g id="a_clust5"><a xlink:title="Default Gateway Host: 10.222.222.1">
<defs>
<linearGradient id="l_2" gradientUnits="userSpaceOnUse" x1="219" y1="-951.9291" x2="219" y2="-877.9291" >
<stop offset="0" style="stop-color:#ffffff;stop-opacity:1.;"/>
<stop offset="1" style="stop-color:#b8860b;stop-opacity:0.188235;"/>
</linearGradient>
</defs>
<path fill="url(#l_2)" stroke="#daa520" stroke-width="3" d="M142,-877.9291C142,-877.9291 296,-877.9291 296,-877.9291 302,-877.9291 308,-883.9291 308,-889.9291 308,-889.9291 308,-939.9291 308,-939.9291 308,-945.9291 302,-951.9291 296,-951.9291 296,-951.9291 142,-951.9291 142,-951.9291 136,-951.9291 130,-945.9291 130,-939.9291 130,-939.9291 130,-889.9291 130,-889.9291 130,-883.9291 136,-877.9291 142,-877.9291"/>
<text text-anchor="start" x="177" y="-939.7291" font-family="Sans-Serif" font-weight="bold" font-size="9.00" fill="#000000">Default Gateway</text>
</a>
</g>
</g>
<!-- 172.217.12.132 -->
<g id="node1" class="node">
<title>172.217.12.132</title>
<g id="a_node1"><a xlink:title="MTR Resolved Target: 172.217.12.132">
<defs>
<linearGradient id="l_3" gradientUnits="userSpaceOnUse" x1="164" y1="-102.5" x2="164" y2="-62.5" >
<stop offset="0" style="stop-color:#006400;stop-opacity:1.;"/>
<stop offset="1" style="stop-color:#00ff00;stop-opacity:1.;"/>
</linearGradient>
</defs>
<path fill="url(#l_3)" stroke="#000000" d="M72.5,-62.5C72.5,-62.5 255.5,-62.5 255.5,-62.5 261.5,-62.5 267.5,-68.5 267.5,-74.5 267.5,-74.5 267.5,-90.5 267.5,-90.5 267.5,-96.5 261.5,-102.5 255.5,-102.5 255.5,-102.5 72.5,-102.5 72.5,-102.5 66.5,-102.5 60.5,-96.5 60.5,-90.5 60.5,-90.5 60.5,-74.5 60.5,-74.5 60.5,-68.5 66.5,-62.5 72.5,-62.5"/>
<text text-anchor="middle" x="115.5" y="-85.7" font-family="Sans-Serif" font-size="11.00" fill="#000000">Resolved Target</text>
<text text-anchor="middle" x="115.5" y="-73.7" font-family="Sans-Serif" font-size="11.00" fill="#000000">172.217.12.132</text>
<polyline fill="none" stroke="#000000" points="170.5,-62.5 170.5,-102.5 "/>
<text text-anchor="middle" x="219" y="-89.7" font-family="Sans-Serif" font-size="11.00" fill="#000000">T1</text>
<polyline fill="none" stroke="#000000" points="170.5,-82.5 267.5,-82.5 "/>
<text text-anchor="middle" x="219" y="-69.7" font-family="Sans-Serif" font-size="11.00" fill="#000000">https(443) SA</text>
</a>
</g>
</g>
<!-- 100.41.0.6 -->
<g id="node2" class="node">
<title>100.41.0.6</title>
<g id="a_node2"><a xlink:title="Hop Host: 100.41.0.6">
<defs>
<linearGradient id="l_4" gradientUnits="userSpaceOnUse" x1="219" y1="-714.4646" x2="219" y2="-678.4646" >
<stop offset="0" style="stop-color:#ffffff;stop-opacity:1.;"/>
<stop offset="1" style="stop-color:#60baba;stop-opacity:1.;"/>
</linearGradient>
</defs>
<ellipse fill="url(#l_4)" stroke="#60baba" cx="219" cy="-696.4646" rx="48.2143" ry="18"/>
<text text-anchor="middle" x="219" y="-693.6646" font-family="Sans-Serif" font-size="11.00" fill="#000000">100.41.0.6</text>
</a>
</g>
</g>
<!-- Unk1 -->
<g id="node6" class="node">
<title>Unk1</title>
<g id="a_node6"><a xlink:title="Trace: 1:4, Unknown Hop: Unk1">
<defs>
<linearGradient id="l_5" gradientUnits="userSpaceOnUse" x1="219" y1="-623.7012" x2="219" y2="-597.7634" >
<stop offset="0" style="stop-color:#ffffff;stop-opacity:1.;"/>
<stop offset="1" style="stop-color:#d8d8d8;stop-opacity:1.;"/>
</linearGradient>
</defs>
<polygon fill="url(#l_5)" stroke="#000000" points="221.8454,-597.7989 223.7292,-597.8699 225.5936,-597.9762 227.4309,-598.1174 229.2336,-598.2932 230.9946,-598.5031 232.7069,-598.7465 234.3638,-599.0227 235.959,-599.3311 237.4866,-599.6707 238.9411,-600.0406 240.3175,-600.4398 241.6111,-600.8673 242.8179,-601.3218 243.9342,-601.802 244.9571,-602.3068 245.8839,-602.8346 246.7127,-603.3841 247.4421,-603.9537 248.0711,-604.5419 248.5993,-605.1471 249.0268,-605.7676 249.3541,-606.4017 249.5825,-607.0477 249.7133,-607.7037 249.7485,-608.3681 249.6904,-609.0389 249.5416,-609.7144 249.3052,-610.3927 248.9845,-611.0719 248.5828,-611.7502 248.104,-612.4256 247.552,-613.0965 246.9307,-613.7608 246.2443,-614.4169 245.4969,-615.0629 244.6928,-615.697 243.836,-616.3174 242.9307,-616.9226 241.9809,-617.5108 240.9906,-618.0805 239.9635,-618.6299 238.9033,-619.1578 237.8134,-619.6625 236.6971,-620.1428 235.5574,-620.5973 234.3971,-621.0247 233.219,-621.4239 232.0255,-621.7939 230.8186,-622.1335 229.6005,-622.4418 228.3729,-622.7181 227.1374,-622.9615 225.8954,-623.1714 224.6483,-623.3472 223.3971,-623.4884 222.1429,-623.5946 220.8865,-623.6656 219.629,-623.7012 218.371,-623.7012 217.1135,-623.6656 215.8571,-623.5946 214.6029,-623.4884 213.3517,-623.3472 212.1046,-623.1714 210.8626,-622.9615 209.6271,-622.7181 208.3995,-622.4418 207.1814,-622.1335 205.9745,-621.7939 204.781,-621.4239 203.6029,-621.0247 202.4426,-620.5973 201.3029,-620.1428 200.1866,-619.6625 199.0967,-619.1578 198.0365,-618.6299 197.0094,-618.0805 196.0191,-617.5108 195.0693,-616.9226 194.164,-616.3174 193.3072,-615.697 192.5031,-615.0629 191.7557,-614.4169 191.0693,-613.7608 190.448,-613.0965 189.896,-612.4256 189.4172,-611.7502 189.0155,-611.0719 188.6948,-610.3927 188.4584,-609.7144 188.3096,-609.0389 188.2515,-608.3681 188.2867,-607.7037 188.4175,-607.0477 188.6459,-606.4017 188.9732,-605.7676 189.4007,-605.1471 189.9289,-604.5419 190.5579,-603.9537 191.2873,-603.3841 192.1161,-602.8346 193.0429,-602.3068 194.0658,-601.802 195.1821,-601.3218 196.3889,-600.8673 197.6825,-600.4398 199.0589,-600.0406 200.5134,-599.6707 202.041,-599.3311 203.6362,-599.0227 205.2931,-598.7465 207.0054,-598.5031 208.7664,-598.2932 210.5691,-598.1174 212.4064,-597.9762 214.2708,-597.8699 216.1546,-597.7989 218.0502,-597.7634 219.9498,-597.7634 221.8454,-597.7989"/>
<text text-anchor="middle" x="219" y="-608.5323" font-family="Sans-Serif" font-size="9.00" fill="#000000">Unk1</text>
</a>
</g>
</g>
<!-- 100.41.0.6&#45;&gt;Unk1 -->
<g id="edge4" class="edge">
<title>100.41.0.6&#45;&gt;Unk1</title>
<g id="a_edge4"><a xlink:title="Trace: 1:4, 100.41.0.6 &#45;&gt; Unk1">
<path fill="none" stroke="#a07070" d="M219,-678.283C219,-665.329 219,-647.8129 219,-633.8635"/>
<polygon fill="#a07070" stroke="#a07070" points="222.5001,-633.5962 219,-623.5963 215.5001,-633.5963 222.5001,-633.5962"/>
</a>
</g>
</g>
<!-- 10.222.222.10 -->
<g id="node3" class="node">
<title>10.222.222.10</title>
<g id="a_node3"><a xlink:title="Begin Host Probe: 10.222.222.10">
<defs>
<linearGradient id="l_6" gradientUnits="userSpaceOnUse" x1="144" y1="-1036.4291" x2="144" y2="-996.4291" >
<stop offset="0" style="stop-color:#ffffff;stop-opacity:1.;"/>
<stop offset="1" style="stop-color:#ff8c00;stop-opacity:1.;"/>
</linearGradient>
</defs>
<path fill="url(#l_6)" stroke="#000000" d="M28.5,-996.4291C28.5,-996.4291 259.5,-996.4291 259.5,-996.4291 265.5,-996.4291 271.5,-1002.4291 271.5,-1008.4291 271.5,-1008.4291 271.5,-1024.4291 271.5,-1024.4291 271.5,-1030.4291 265.5,-1036.4291 259.5,-1036.4291 259.5,-1036.4291 28.5,-1036.4291 28.5,-1036.4291 22.5,-1036.4291 16.5,-1030.4291 16.5,-1024.4291 16.5,-1024.4291 16.5,-1008.4291 16.5,-1008.4291 16.5,-1002.4291 22.5,-996.4291 28.5,-996.4291"/>
<text text-anchor="middle" x="91" y="-1019.6291" font-family="Sans-Serif" font-size="11.00" fill="#000000">Probe: 10.222.222.10</text>
<text text-anchor="middle" x="91" y="-1007.6291" font-family="Sans-Serif" font-size="11.00" fill="#000000">Network Interface: lan0</text>
<polyline fill="none" stroke="#000000" points="165.5,-996.4291 165.5,-1036.4291 "/>
<text text-anchor="middle" x="218.5" y="-1023.6291" font-family="Sans-Serif" font-size="11.00" fill="#000000">TCP: https(443)</text>
<polyline fill="none" stroke="#000000" points="165.5,-1016.4291 271.5,-1016.4291 "/>
<text text-anchor="middle" x="218.5" y="-1003.6291" font-family="Sans-Serif" font-size="11.00" fill="#000000">T1</text>
</a>
</g>
</g>
<!-- 10.222.222.1 -->
<g id="node4" class="node">
<title>10.222.222.1</title>
<g id="a_node4"><a xlink:title="Default Gateway Host: 10.222.222.1">
<defs>
<linearGradient id="l_7" gradientUnits="userSpaceOnUse" x1="219" y1="-920.6211" x2="219" y2="-887.2372" >
<stop offset="0" style="stop-color:#ffffff;stop-opacity:1.;"/>
<stop offset="1" style="stop-color:#daa520;stop-opacity:1.;"/>
</linearGradient>
</defs>
<path fill="url(#l_7)" stroke="#000000" d="M207.2886,-919.3131C207.2886,-919.3131 150.131,-906.5452 150.131,-906.5452 144.2753,-905.2372 144.2753,-902.6211 150.131,-901.3131 150.131,-901.3131 207.2886,-888.5452 207.2886,-888.5452 213.1443,-887.2372 224.8557,-887.2372 230.7114,-888.5452 230.7114,-888.5452 287.869,-901.3131 287.869,-901.3131 293.7247,-902.6211 293.7247,-905.2372 287.869,-906.5452 287.869,-906.5452 230.7114,-919.3131 230.7114,-919.3131 224.8557,-920.6211 213.1443,-920.6211 207.2886,-919.3131"/>
<text text-anchor="middle" x="219" y="-901.1291" font-family="Sans-Serif" font-size="11.00" fill="#000000">10.222.222.1</text>
</a>
</g>
</g>
<!-- 10.222.222.10&#45;&gt;10.222.222.1 -->
<g id="edge1" class="edge">
<title>10.222.222.10:s&#45;&gt;10.222.222.1</title>
<g id="a_edge1"><a xlink:title="Trace: 1:1, 10.222.222.10 &#45;&gt; 10.222.222.1 (RTT: 10.222.222.10 &lt;&#45;&gt; 10.222.222.1 (7.313ms))">
<path fill="none" stroke="#a07070" d="M219,-996.4291C219,-974.8159 219,-950.3621 219,-932.028"/>
<polygon fill="#a07070" stroke="#a07070" points="222.5001,-932.0081 219,-922.0081 215.5001,-932.0082 222.5001,-932.0081"/>
</a>
</g>
<g id="a_edge1&#45;label"><a xlink:title="Trace: 1:1, RTT: 10.222.222.10 &lt;&#45;&gt; 10.222.222.1 (7.313ms)">
<text text-anchor="start" x="219" y="-962.5291" font-family="Times,serif" font-size="8.00" fill="#000000">  7.313ms</text>
</a>
</g>
</g>
<!-- Unk0 -->
<g id="node5" class="node">
<title>Unk0</title>
<g id="a_node5"><a xlink:title="Trace: 1:2, Unknown Hop: Unk0">
<defs>
<linearGradient id="l_8" gradientUnits="userSpaceOnUse" x1="219" y1="-831.1657" x2="219" y2="-805.228" >
<stop offset="0" style="stop-color:#ffffff;stop-opacity:1.;"/>
<stop offset="1" style="stop-color:#d8d8d8;stop-opacity:1.;"/>
</linearGradient>
</defs>
<polygon fill="url(#l_8)" stroke="#000000" points="221.8454,-805.2635 223.7292,-805.3345 225.5936,-805.4408 227.4309,-805.582 229.2336,-805.7578 230.9946,-805.9677 232.7069,-806.2111 234.3638,-806.4873 235.959,-806.7957 237.4866,-807.1353 238.9411,-807.5052 240.3175,-807.9044 241.6111,-808.3319 242.8179,-808.7863 243.9342,-809.2666 244.9571,-809.7713 245.8839,-810.2992 246.7127,-810.8487 247.4421,-811.4183 248.0711,-812.0065 248.5993,-812.6117 249.0268,-813.2322 249.3541,-813.8663 249.5825,-814.5122 249.7133,-815.1683 249.7485,-815.8327 249.6904,-816.5035 249.5416,-817.179 249.3052,-817.8573 248.9845,-818.5365 248.5828,-819.2147 248.104,-819.8902 247.552,-820.5611 246.9307,-821.2254 246.2443,-821.8815 245.4969,-822.5274 244.6928,-823.1615 243.836,-823.782 242.9307,-824.3872 241.9809,-824.9754 240.9906,-825.545 239.9635,-826.0945 238.9033,-826.6224 237.8134,-827.1271 236.6971,-827.6074 235.5574,-828.0619 234.3971,-828.4893 233.219,-828.8885 232.0255,-829.2584 230.8186,-829.598 229.6005,-829.9064 228.3729,-830.1827 227.1374,-830.4261 225.8954,-830.6359 224.6483,-830.8117 223.3971,-830.9529 222.1429,-831.0592 220.8865,-831.1302 219.629,-831.1657 218.371,-831.1657 217.1135,-831.1302 215.8571,-831.0592 214.6029,-830.9529 213.3517,-830.8117 212.1046,-830.6359 210.8626,-830.4261 209.6271,-830.1827 208.3995,-829.9064 207.1814,-829.598 205.9745,-829.2584 204.781,-828.8885 203.6029,-828.4893 202.4426,-828.0619 201.3029,-827.6074 200.1866,-827.1271 199.0967,-826.6224 198.0365,-826.0945 197.0094,-825.545 196.0191,-824.9754 195.0693,-824.3872 194.164,-823.782 193.3072,-823.1615 192.5031,-822.5274 191.7557,-821.8815 191.0693,-821.2254 190.448,-820.5611 189.896,-819.8902 189.4172,-819.2147 189.0155,-818.5365 188.6948,-817.8573 188.4584,-817.179 188.3096,-816.5035 188.2515,-815.8327 188.2867,-815.1683 188.4175,-814.5122 188.6459,-813.8663 188.9732,-813.2322 189.4007,-812.6117 189.9289,-812.0065 190.5579,-811.4183 191.2873,-810.8487 192.1161,-810.2992 193.0429,-809.7713 194.0658,-809.2666 195.1821,-808.7863 196.3889,-808.3319 197.6825,-807.9044 199.0589,-807.5052 200.5134,-807.1353 202.041,-806.7957 203.6362,-806.4873 205.2931,-806.2111 207.0054,-805.9677 208.7664,-805.7578 210.5691,-805.582 212.4064,-805.4408 214.2708,-805.3345 216.1546,-805.2635 218.0502,-805.228 219.9498,-805.228 221.8454,-805.2635"/>
<text text-anchor="middle" x="219" y="-815.9969" font-family="Sans-Serif" font-size="9.00" fill="#000000">Unk0</text>
</a>
</g>
</g>
<!-- 10.222.222.1&#45;&gt;Unk0 -->
<g id="edge2" class="edge">
<title>10.222.222.1&#45;&gt;Unk0</title>
<g id="a_edge2"><a xlink:title="Trace: 1:2, 10.222.222.1 &#45;&gt; Unk0">
<path fill="none" stroke="#a07070" d="M219,-885.7475C219,-872.7936 219,-855.2775 219,-841.328"/>
<polygon fill="#a07070" stroke="#a07070" points="222.5001,-841.0608 219,-831.0608 215.5001,-841.0609 222.5001,-841.0608"/>
</a>
</g>
</g>
<!-- Unk0&#45;&gt;100.41.0.6 -->
<g id="edge3" class="edge">
<title>Unk0&#45;&gt;100.41.0.6</title>
<g id="a_edge3"><a xlink:title="Trace: 1:3, Unk0 &#45;&gt; 100.41.0.6 (RTT: 10.222.222.10 &lt;&#45;&gt; 100.41.0.6 (13.082ms))">
<path fill="none" stroke="#a07070" d="M219,-805.1694C219,-786.0635 219,-749.9686 219,-724.629"/>
<polygon fill="#a07070" stroke="#a07070" points="222.5001,-724.5084 219,-714.5085 215.5001,-724.5085 222.5001,-724.5084"/>
</a>
</g>
<g id="a_edge3&#45;label"><a xlink:title="Trace: 1:3, RTT: 10.222.222.10 &lt;&#45;&gt; 100.41.0.6 (13.082ms)">
<text text-anchor="start" x="219" y="-772.0646" font-family="Times,serif" font-size="8.00" fill="#000000">  13.082ms</text>
</a>
</g>
</g>
<!-- 140.222.227.145 -->
<g id="node7" class="node">
<title>140.222.227.145</title>
<g id="a_node7"><a xlink:title="Hop Host: 140.222.227.145">
<defs>
<linearGradient id="l_9" gradientUnits="userSpaceOnUse" x1="219" y1="-535" x2="219" y2="-499" >
<stop offset="0" style="stop-color:#ffffff;stop-opacity:1.;"/>
<stop offset="1" style="stop-color:#a0a0a0;stop-opacity:1.;"/>
</linearGradient>
</defs>
<ellipse fill="url(#l_9)" stroke="#000000" cx="219" cy="-517" rx="70.9157" ry="18"/>
<text text-anchor="middle" x="219" y="-514.2" font-family="Sans-Serif" font-size="11.00" fill="#000000">140.222.227.145</text>
</a>
</g>
</g>
<!-- Unk1&#45;&gt;140.222.227.145 -->
<g id="edge5" class="edge">
<title>Unk1&#45;&gt;140.222.227.145</title>
<g id="a_edge5"><a xlink:title="Trace: 1:5, Unk1 &#45;&gt; 140.222.227.145 (RTT: 10.222.222.10 &lt;&#45;&gt; 140.222.227.145 (8.878ms))">
<path fill="none" stroke="#a07070" d="M219,-597.6992C219,-584.2023 219,-562.6894 219,-545.2685"/>
<polygon fill="#a07070" stroke="#a07070" points="222.5001,-545.0586 219,-535.0587 215.5001,-545.0587 222.5001,-545.0586"/>
</a>
</g>
<g id="a_edge5&#45;label"><a xlink:title="Trace: 1:5, RTT: 10.222.222.10 &lt;&#45;&gt; 140.222.227.145 (8.878ms)">
<text text-anchor="start" x="219" y="-564.6" font-family="Times,serif" font-size="8.00" fill="#000000">  8.878ms</text>
</a>
</g>
</g>
<!-- 72.14.208.130 -->
<g id="node8" class="node">
<title>72.14.208.130</title>
<g id="a_node8"><a xlink:title="Hop Host: 72.14.208.130">
<defs>
<linearGradient id="l_10" gradientUnits="userSpaceOnUse" x1="219" y1="-436" x2="219" y2="-400" >
<stop offset="0" style="stop-color:#ffffff;stop-opacity:1.;"/>
<stop offset="1" style="stop-color:#a0a0a0;stop-opacity:1.;"/>
</linearGradient>
</defs>
<ellipse fill="url(#l_10)" stroke="#000000" cx="219" cy="-418" rx="61.8756" ry="18"/>
<text text-anchor="middle" x="219" y="-415.2" font-family="Sans-Serif" font-size="11.00" fill="#000000">72.14.208.130</text>
</a>
</g>
</g>
<!-- 140.222.227.145&#45;&gt;72.14.208.130 -->
<g id="edge6" class="edge">
<title>140.222.227.145&#45;&gt;72.14.208.130</title>
<g id="a_edge6"><a xlink:title="Trace: 1:6, 140.222.227.145 &#45;&gt; 72.14.208.130 (RTT: 10.222.222.10 &lt;&#45;&gt; 72.14.208.130 (9.096ms))">
<path fill="none" stroke="#a07070" d="M219,-498.8419C219,-484.1888 219,-463.311 219,-446.443"/>
<polygon fill="#a07070" stroke="#a07070" points="222.5001,-446.043 219,-436.043 215.5001,-446.043 222.5001,-446.043"/>
</a>
</g>
<g id="a_edge6&#45;label"><a xlink:title="Trace: 1:6, RTT: 10.222.222.10 &lt;&#45;&gt; 72.14.208.130 (9.096ms)">
<text text-anchor="start" x="219" y="-465.6" font-family="Times,serif" font-size="8.00" fill="#000000">  9.096ms</text>
</a>
</g>
</g>
<!-- 108.170.225.8 -->
<g id="node9" class="node">
<title>108.170.225.8</title>
<g id="a_node9"><a xlink:title="Hop Host: 108.170.225.8">
<defs>
<linearGradient id="l_11" gradientUnits="userSpaceOnUse" x1="219" y1="-337" x2="219" y2="-301" >
<stop offset="0" style="stop-color:#ffffff;stop-opacity:1.;"/>
<stop offset="1" style="stop-color:#a0a0a0;stop-opacity:1.;"/>
</linearGradient>
</defs>
<ellipse fill="url(#l_11)" stroke="#000000" cx="219" cy="-319" rx="61.8756" ry="18"/>
<text text-anchor="middle" x="219" y="-316.2" font-family="Sans-Serif" font-size="11.00" fill="#000000">108.170.225.8</text>
</a>
</g>
</g>
<!-- 72.14.208.130&#45;&gt;108.170.225.8 -->
<g id="edge7" class="edge">
<title>72.14.208.130&#45;&gt;108.170.225.8</title>
<g id="a_edge7"><a xlink:title="Trace: 1:7, 72.14.208.130 &#45;&gt; 108.170.225.8 (RTT: 10.222.222.10 &lt;&#45;&gt; 108.170.225.8 (9.381ms))">
<path fill="none" stroke="#a07070" d="M219,-399.8419C219,-385.1888 219,-364.311 219,-347.443"/>
<polygon fill="#a07070" stroke="#a07070" points="222.5001,-347.043 219,-337.043 215.5001,-347.043 222.5001,-347.043"/>
</a>
</g>
<g id="a_edge7&#45;label"><a xlink:title="Trace: 1:7, RTT: 10.222.222.10 &lt;&#45;&gt; 108.170.225.8 (9.381ms)">
<text text-anchor="start" x="219" y="-366.6" font-family="Times,serif" font-size="8.00" fill="#000000">  9.381ms</text>
</a>
</g>
</g>
<!-- 108.170.227.211 -->
<g id="node10" class="node">
<title>108.170.227.211</title>
<g id="a_node10"><a xlink:title="Hop Host: 108.170.227.211">
<defs>
<linearGradient id="l_12" gradientUnits="userSpaceOnUse" x1="219" y1="-238" x2="219" y2="-202" >
<stop offset="0" style="stop-color:#ffffff;stop-opacity:1.;"/>
<stop offset="1" style="stop-color:#a0a0a0;stop-opacity:1.;"/>
</linearGradient>
</defs>
<ellipse fill="url(#l_12)" stroke="#000000" cx="219" cy="-220" rx="70.9157" ry="18"/>
<text text-anchor="middle" x="219" y="-217.2" font-family="Sans-Serif" font-size="11.00" fill="#000000">108.170.227.211</text>
</a>
</g>
</g>
<!-- 108.170.225.8&#45;&gt;108.170.227.211 -->
<g id="edge8" class="edge">
<title>108.170.225.8&#45;&gt;108.170.227.211</title>
<g id="a_edge8"><a xlink:title="Trace: 1:8, 108.170.225.8 &#45;&gt; 108.170.227.211 (RTT: 10.222.222.10 &lt;&#45;&gt; 108.170.227.211 (9.732ms))">
<path fill="none" stroke="#a07070" d="M219,-300.8419C219,-286.1888 219,-265.311 219,-248.443"/>
<polygon fill="#a07070" stroke="#a07070" points="222.5001,-248.043 219,-238.043 215.5001,-248.043 222.5001,-248.043"/>
</a>
</g>
<g id="a_edge8&#45;label"><a xlink:title="Trace: 1:8, RTT: 10.222.222.10 &lt;&#45;&gt; 108.170.227.211 (9.732ms)">
<text text-anchor="start" x="219" y="-267.6" font-family="Times,serif" font-size="8.00" fill="#000000">  9.732ms</text>
</a>
</g>
</g>
<!-- 108.170.227.211&#45;&gt;172.217.12.132 -->
<g id="edge9" class="edge">
<title>108.170.227.211&#45;&gt;172.217.12.132:n</title>
<g id="a_edge9"><a xlink:title="Trace: 1:9, 108.170.227.211 &#45;&gt; 172.217.12.132 (RTT: 10.222.222.10 &lt;&#45;&gt; 172.217.12.132 (10.104ms))">
<path fill="none" stroke="#a07070" d="M219,-201.6828C219,-180.7342 219,-145.1136 219,-112.504"/>
<polygon fill="#a07070" stroke="#a07070" points="222.5001,-112.5 219,-102.5 215.5001,-112.5 222.5001,-112.5"/>
</a>
</g>
<g id="a_edge9&#45;label"><a xlink:title="Trace: 1:9, RTT: 10.222.222.10 &lt;&#45;&gt; 172.217.12.132 (10.104ms)">
<text text-anchor="start" x="219" y="-168.6" font-family="Times,serif" font-size="8.00" fill="#000000">  10.104ms</text>
</a>
</g>
</g>
</g>
</svg>
