<?xml version="1.0" encoding="UTF-8" standalone="no"?>
<!DOCTYPE svg PUBLIC "-//W3C//DTD SVG 1.1//EN"
 "http://www.w3.org/Graphics/SVG/1.1/DTD/svg11.dtd">
<!-- Generated by graphviz version 2.40.1 (0)
 -->
<!-- Title: mtr Pages: 1 -->
<svg width="309pt" height="1082pt"
 viewBox="0.00 0.00 309.00 1082.46" xmlns="http://www.w3.org/2000/svg" xmlns:xlink="http://www.w3.org/1999/xlink">
<g id="graph0" class="graph" transform="scale(1 1) rotate(0) translate(4 1078.4646)">
<title>mtr</title>
<g id="clust1" class="cluster">
<title>cluster_15169</title>
<g id="a_clust1"><a xlink:title="AS: 15169 &#45; [Google]">
<path fill="#608686" fill-opacity="0.188235" stroke="#608686" stroke-width="3" d="M65,-8C65,-8 281,-8 281,-8 287,-8 293,-14 293,-20 293,-20 293,-603 293,-603 293,-609 287,-615 281,-615 281,-615 65,-615 65,-615 59,-615 53,-609 53,-603 53,-603 53,-20 53,-20 53,-14 59,-8 65,-8"/>
<text text-anchor="start" x="141" y="-600.7" font-family="Sans-Serif" font-weight="bold" font-size="11.00" fill="#000000">AS: 15169</text>
<text text-anchor="start" x="151.5" y="-584.5" font-family="Sans-Serif" font-size="10.00" fill="#000000">[Google]</text>
</a>
</g>
</g>
<g id="clust2" class="cluster">
<title>cluster_172_217_10_132</title>
<g id="a_clust2"><a xlink:title="MTR Target: www.google.com">
<defs>
<linearGradient id="l_0" gradientUnits="userSpaceOnUse" x1="173" y1="-111" x2="173" y2="-16" >
<stop offset="0" style="stop-color:#ffffff;stop-opacity:1.;"/>
<stop offset="1" style="stop-color:#a0a0a0;stop-opacity:1.;"/>
</linearGradient>
</defs>
<path fill="url(#l_0)" stroke="#006400" stroke-width="2" d="M73,-16C73,-16 273,-16 273,-16 279,-16 285,-22 285,-28 285,-28 285,-99 285,-99 285,-105 279,-111 273,-111 273,-111 73,-111 73,-111 67,-111 61,-105 61,-99 61,-99 61,-28 61,-28 61,-22 67,-16 73,-16"/>
<text text-anchor="start" x="95" y="-40.2" font-family="Sans-Serif" font-weight="bold" font-size="11.00" fill="#000000">Target: www.google.com</text>
<text text-anchor="start" x="122" y="-24.8" font-family="Sans-Serif" font-size="9.00" fill="#000000">Hop Range (T1: 3 → 9)</text>
</a>
</g>
</g>
<g id="clust3" class="cluster">
<title>cluster_701</title>
<g id="a_clust3"><a xlink:title="AS: 701 &#45; [UUNET, US]">
<path fill="#60baba" fill-opacity="0.188235" stroke="#60baba" stroke-width="3" d="M175,-830.4646C175,-830.4646 263,-830.4646 263,-830.4646 269,-830.4646 275,-836.4646 275,-842.4646 275,-842.4646 275,-909.4646 275,-909.4646 275,-915.4646 269,-921.4646 263,-921.4646 263,-921.4646 175,-921.4646 175,-921.4646 169,-921.4646 163,-915.4646 163,-909.4646 163,-909.4646 163,-842.4646 163,-842.4646 163,-836.4646 169,-830.4646 175,-830.4646"/>
<text text-anchor="start" x="194.5" y="-907.1646" font-family="Sans-Serif" font-weight="bold" font-size="11.00" fill="#000000">AS: 701</text>
<text text-anchor="start" x="188" y="-890.9646" font-family="Sans-Serif" font-size="10.00" fill="#000000">[UUNET, US]</text>
</a>
</g>
</g>
<g id="clust4" class="cluster">
<title>cluster_probe_Title</title>
<g id="a_clust4"><a xlink:title="Multi&#45;Traceroute (MTR) Probe: &#160;10.222.222.10">
<defs>
<linearGradient id="l_1" gradientUnits="userSpaceOnUse" x1="144" y1="-1066.4646" x2="144" y2="-957.4646" >
<stop offset="0" style="stop-color:#ffffff;stop-opacity:1.;"/>
<stop offset="1" style="stop-color:#a0a0a0;stop-opacity:1.;"/>
</linearGradient>
</defs>
<path fill="url(#l_1)" stroke="#ff8c00" stroke-width="3" d="M20,-957.4646C20,-957.4646 268,-957.4646 268,-957.4646 274,-957.4646 280,-963.4646 280,-969.4646 280,-969.4646 280,-1054.4646 280,-1054.4646 280,-1060.4646 274,-1066.4646 268,-1066.4646 268,-1066.4646 20,-1066.4646 20,-1066.4646 14,-1066.4646 8,-1060.4646 8,-1054.4646 8,-1054.4646 8,-969.4646 8,-969.4646 8,-963.4646 14,-957.4646 20,-957.4646"/>
<text text-anchor="start" x="51.5" y="-1052.6646" font-family="Sans-Serif" font-weight="bold" font-size="11.00" fill="#000000">Multi&#45;Traceroute (MTR) Probe</text>
<text text-anchor="start" x="94" y="-1037.2646" font-family="Sans-Serif" font-size="9.00" fill="#000000">2020&#45;02&#45;18 16:12:39</text>
<text text-anchor="start" x="33" y="-1023.2646" font-family="Sans-Serif" font-size="9.00" fill="#000000">Target: www.google.com (172.217.10.132 → T1)</text>
</a>
</g>
</g>
<!-- 72.14.208.130 -->
<g id="node1" class="node">
<title>72.14.208.130</title>
<g id="a_node1"><a xlink:title="Hop Host: 72.14.208.130">
<defs>
<linearGradient id="l_2" gradientUnits="userSpaceOnUse" x1="219" y1="-568" x2="219" y2="-532" >
<stop offset="0" style="stop-color:#ffffff;stop-opacity:1.;"/>
<stop offset="1" style="stop-color:#608686;stop-opacity:1.;"/>
</linearGradient>
</defs>
<ellipse fill="url(#l_2)" stroke="#608686" cx="219" cy="-550" rx="61.8756" ry="18"/>
<text text-anchor="middle" x="219" y="-547.2" font-family="Sans-Serif" font-size="11.00" fill="#000000">72.14.208.130</text>
</a>
</g>
</g>
<!-- 108.170.225.4 -->
<g id="node3" class="node">
<title>108.170.225.4</title>
<g id="a_node3"><a xlink:title="Hop Host: 108.170.225.4">
<defs>
<linearGradient id="l_3" gradientUnits="userSpaceOnUse" x1="219" y1="-413" x2="219" y2="-377" >
<stop offset="0" style="stop-color:#ffffff;stop-opacity:1.;"/>
<stop offset="1" style="stop-color:#608686;stop-opacity:1.;"/>
</linearGradient>
</defs>
<ellipse fill="url(#l_3)" stroke="#608686" cx="219" cy="-395" rx="61.8756" ry="18"/>
<text text-anchor="middle" x="219" y="-392.2" font-family="Sans-Serif" font-size="11.00" fill="#000000">108.170.225.4</text>
</a>
</g>
</g>
<!-- 72.14.208.130&#45;&gt;108.170.225.4 -->
<g id="edge5" class="edge">
<title>72.14.208.130&#45;&gt;108.170.225.4</title>
<g id="a_edge5"><a xlink:title="Trace: 1:7, 72.14.208.130 &#45;&gt; 108.170.225.4 (RTT: 10.222.222.10 &lt;&#45;&gt; 108.170.225.4 (13.854ms))">
<path fill="none" stroke="#a07070" d="M219,-531.9162C219,-505.3422 219,-455.4757 219,-423.819"/>
<polygon fill="#a07070" stroke="#a07070" points="222.5001,-423.4491 219,-413.4491 215.5001,-423.4491 222.5001,-423.4491"/>
</a>
</g>
<g id="a_edge5&#45;label"><a xlink:title="Trace: 1:7, RTT: 10.222.222.10 &lt;&#45;&gt; 108.170.225.4 (13.854ms)">
<text text-anchor="start" x="219" y="-470.6" font-family="Times,serif" font-size="8.00" fill="#000000">  13.854ms</text>
</a>
</g>
</g>
<!-- 172.253.72.117 -->
<g id="node2" class="node">
<title>172.253.72.117</title>
<g id="a_node2"><a xlink:title="Hop Host: 172.253.72.117">
<defs>
<linearGradient id="l_4" gradientUnits="userSpaceOnUse" x1="219" y1="-258" x2="219" y2="-222" >
<stop offset="0" style="stop-color:#ffffff;stop-opacity:1.;"/>
<stop offset="1" style="stop-color:#608686;stop-opacity:1.;"/>
</linearGradient>
</defs>
<ellipse fill="url(#l_4)" stroke="#608686" cx="219" cy="-240" rx="66.2946" ry="18"/>
<text text-anchor="middle" x="219" y="-237.2" font-family="Sans-Serif" font-size="11.00" fill="#000000">172.253.72.117</text>
</a>
</g>
</g>
<!-- 172.217.10.132 -->
<g id="node4" class="node">
<title>172.217.10.132</title>
<g id="a_node4"><a xlink:title="MTR Resolved Target: 172.217.10.132">
<defs>
<linearGradient id="l_5" gradientUnits="userSpaceOnUse" x1="173" y1="-102.5" x2="173" y2="-62.5" >
<stop offset="0" style="stop-color:#006400;stop-opacity:1.;"/>
<stop offset="1" style="stop-color:#00ff00;stop-opacity:1.;"/>
</linearGradient>
</defs>
<path fill="url(#l_5)" stroke="#000000" d="M81.5,-62.5C81.5,-62.5 264.5,-62.5 264.5,-62.5 270.5,-62.5 276.5,-68.5 276.5,-74.5 276.5,-74.5 276.5,-90.5 276.5,-90.5 276.5,-96.5 270.5,-102.5 264.5,-102.5 264.5,-102.5 81.5,-102.5 81.5,-102.5 75.5,-102.5 69.5,-96.5 69.5,-90.5 69.5,-90.5 69.5,-74.5 69.5,-74.5 69.5,-68.5 75.5,-62.5 81.5,-62.5"/>
<text text-anchor="middle" x="124.5" y="-85.7" font-family="Sans-Serif" font-size="11.00" fill="#000000">Resolved Target</text>
<text text-anchor="middle" x="124.5" y="-73.7" font-family="Sans-Serif" font-size="11.00" fill="#000000">172.217.10.132</text>
<polyline fill="none" stroke="#000000" points="179.5,-62.5 179.5,-102.5 "/>
<text text-anchor="middle" x="228" y="-89.7" font-family="Sans-Serif" font-size="11.00" fill="#000000">T1</text>
<polyline fill="none" stroke="#000000" points="179.5,-82.5 276.5,-82.5 "/>
<text text-anchor="middle" x="228" y="-69.7" font-family="Sans-Serif" font-size="11.00" fill="#000000">https(443) SA</text>
</a>
</g>
</g>
<!-- 172.253.72.117&#45;&gt;172.217.10.132 -->
<g id="edge7" class="edge">
<title>172.253.72.117&#45;&gt;172.217.10.132:n</title>
<g id="a_edge7"><a xlink:title="Trace: 1:9, 172.253.72.117 &#45;&gt; 172.217.10.132 (RTT: 10.222.222.10 &lt;&#45;&gt; 172.217.10.132 (11.333ms))">
<path fill="none" stroke="#a07070" d="M220.9529,-221.7866C223.393,-197.5393 227.3232,-153.0138 227.9224,-112.6558"/>
<polygon fill="#a07070" stroke="#a07070" points="231.4234,-112.5265 228,-102.5 224.4236,-112.4729 231.4234,-112.5265"/>
</a>
</g>
<g id="a_edge7&#45;label"><a xlink:title="Trace: 1:9, RTT: 10.222.222.10 &lt;&#45;&gt; 172.217.10.132 (11.333ms)">
<text text-anchor="start" x="226" y="-160.6" font-family="Times,serif" font-size="8.00" fill="#000000">  11.333ms</text>
</a>
</g>
</g>
<!-- 108.170.225.4&#45;&gt;172.253.72.117 -->
<g id="edge6" class="edge">
<title>108.170.225.4&#45;&gt;172.253.72.117</title>
<g id="a_edge6"><a xlink:title="Trace: 1:8, 108.170.225.4 &#45;&gt; 172.253.72.117 (RTT: 10.222.222.10 &lt;&#45;&gt; 172.253.72.117 (11.575ms))">
<path fill="none" stroke="#a07070" d="M219,-376.9162C219,-350.3422 219,-300.4757 219,-268.819"/>
<polygon fill="#a07070" stroke="#a07070" points="222.5001,-268.4491 219,-258.4491 215.5001,-268.4491 222.5001,-268.4491"/>
</a>
</g>
<g id="a_edge6&#45;label"><a xlink:title="Trace: 1:8, RTT: 10.222.222.10 &lt;&#45;&gt; 172.253.72.117 (11.575ms)">
<text text-anchor="start" x="219" y="-315.6" font-family="Times,serif" font-size="8.00" fill="#000000">  11.575ms</text>
</a>
</g>
</g>
<!-- 100.41.0.6 -->
<g id="node5" class="node">
<title>100.41.0.6</title>
<g id="a_node5"><a xlink:title="Hop Host: 100.41.0.6">
<defs>
<linearGradient id="l_6" gradientUnits="userSpaceOnUse" x1="219" y1="-874.4646" x2="219" y2="-838.4646" >
<stop offset="0" style="stop-color:#ffffff;stop-opacity:1.;"/>
<stop offset="1" style="stop-color:#60baba;stop-opacity:1.;"/>
</linearGradient>
</defs>
<ellipse fill="url(#l_6)" stroke="#60baba" cx="219" cy="-856.4646" rx="48.2143" ry="18"/>
<text text-anchor="middle" x="219" y="-853.6646" font-family="Sans-Serif" font-size="11.00" fill="#000000">100.41.0.6</text>
</a>
</g>
</g>
<!-- Unk0 -->
<g id="node7" class="node">
<title>Unk0</title>
<g id="a_node7"><a xlink:title="Trace: 1:4, Unknown Hop: Unk0">
<defs>
<linearGradient id="l_7" gradientUnits="userSpaceOnUse" x1="219" y1="-783.7012" x2="219" y2="-757.7634" >
<stop offset="0" style="stop-color:#ffffff;stop-opacity:1.;"/>
<stop offset="1" style="stop-color:#d8d8d8;stop-opacity:1.;"/>
</linearGradient>
</defs>
<polygon fill="url(#l_7)" stroke="#000000" points="221.8454,-757.7989 223.7292,-757.8699 225.5936,-757.9762 227.4309,-758.1174 229.2336,-758.2932 230.9946,-758.5031 232.7069,-758.7465 234.3638,-759.0227 235.959,-759.3311 237.4866,-759.6707 238.9411,-760.0406 240.3175,-760.4398 241.6111,-760.8673 242.8179,-761.3218 243.9342,-761.802 244.9571,-762.3068 245.8839,-762.8346 246.7127,-763.3841 247.4421,-763.9537 248.0711,-764.5419 248.5993,-765.1471 249.0268,-765.7676 249.3541,-766.4017 249.5825,-767.0477 249.7133,-767.7037 249.7485,-768.3681 249.6904,-769.0389 249.5416,-769.7144 249.3052,-770.3927 248.9845,-771.0719 248.5828,-771.7502 248.104,-772.4256 247.552,-773.0965 246.9307,-773.7608 246.2443,-774.4169 245.4969,-775.0629 244.6928,-775.697 243.836,-776.3174 242.9307,-776.9226 241.9809,-777.5108 240.9906,-778.0805 239.9635,-778.6299 238.9033,-779.1578 237.8134,-779.6625 236.6971,-780.1428 235.5574,-780.5973 234.3971,-781.0247 233.219,-781.4239 232.0255,-781.7939 230.8186,-782.1335 229.6005,-782.4418 228.3729,-782.7181 227.1374,-782.9615 225.8954,-783.1714 224.6483,-783.3472 223.3971,-783.4884 222.1429,-783.5946 220.8865,-783.6656 219.629,-783.7012 218.371,-783.7012 217.1135,-783.6656 215.8571,-783.5946 214.6029,-783.4884 213.3517,-783.3472 212.1046,-783.1714 210.8626,-782.9615 209.6271,-782.7181 208.3995,-782.4418 207.1814,-782.1335 205.9745,-781.7939 204.781,-781.4239 203.6029,-781.0247 202.4426,-780.5973 201.3029,-780.1428 200.1866,-779.6625 199.0967,-779.1578 198.0365,-778.6299 197.0094,-778.0805 196.0191,-777.5108 195.0693,-776.9226 194.164,-776.3174 193.3072,-775.697 192.5031,-775.0629 191.7557,-774.4169 191.0693,-773.7608 190.448,-773.0965 189.896,-772.4256 189.4172,-771.7502 189.0155,-771.0719 188.6948,-770.3927 188.4584,-769.7144 188.3096,-769.0389 188.2515,-768.3681 188.2867,-767.7037 188.4175,-767.0477 188.6459,-766.4017 188.9732,-765.7676 189.4007,-765.1471 189.9289,-764.5419 190.5579,-763.9537 191.2873,-763.3841 192.1161,-762.8346 193.0429,-762.3068 194.0658,-761.802 195.1821,-761.3218 196.3889,-760.8673 197.6825,-760.4398 199.0589,-760.0406 200.5134,-759.6707 202.041,-759.3311 203.6362,-759.0227 205.2931,-758.7465 207.0054,-758.5031 208.7664,-758.2932 210.5691,-758.1174 212.4064,-757.9762 214.2708,-757.8699 216.1546,-757.7989 218.0502,-757.7634 219.9498,-757.7634 221.8454,-757.7989"/>
<text text-anchor="middle" x="219" y="-768.5323" font-family="Sans-Serif" font-size="9.00" fill="#000000">Unk0</text>
</a>
</g>
</g>
<!-- 100.41.0.6&#45;&gt;Unk0 -->
<g id="edge2" class="edge">
<title>100.41.0.6&#45;&gt;Unk0</title>
<g id="a_edge2"><a xlink:title="Trace: 1:4, 100.41.0.6 &#45;&gt; Unk0">
<path fill="none" stroke="#a07070" d="M219,-838.283C219,-825.329 219,-807.8129 219,-793.8635"/>
<polygon fill="#a07070" stroke="#a07070" points="222.5001,-793.5962 219,-783.5963 215.5001,-793.5963 222.5001,-793.5962"/>
</a>
</g>
</g>
<!-- 10.222.222.10 -->
<g id="node6" class="node">
<title>10.222.222.10</title>
<g id="a_node6"><a xlink:title="Begin Host Probe: 10.222.222.10">
<defs>
<linearGradient id="l_8" gradientUnits="userSpaceOnUse" x1="144" y1="-1005.9646" x2="144" y2="-965.9646" >
<stop offset="0" style="stop-color:#ffffff;stop-opacity:1.;"/>
<stop offset="1" style="stop-color:#ff8c00;stop-opacity:1.;"/>
</linearGradient>
</defs>
<path fill="url(#l_8)" stroke="#000000" d="M28.5,-965.9646C28.5,-965.9646 259.5,-965.9646 259.5,-965.9646 265.5,-965.9646 271.5,-971.9646 271.5,-977.9646 271.5,-977.9646 271.5,-993.9646 271.5,-993.9646 271.5,-999.9646 265.5,-1005.9646 259.5,-1005.9646 259.5,-1005.9646 28.5,-1005.9646 28.5,-1005.9646 22.5,-1005.9646 16.5,-999.9646 16.5,-993.9646 16.5,-993.9646 16.5,-977.9646 16.5,-977.9646 16.5,-971.9646 22.5,-965.9646 28.5,-965.9646"/>
<text text-anchor="middle" x="91" y="-989.1646" font-family="Sans-Serif" font-size="11.00" fill="#000000">Probe: 10.222.222.10</text>
<text text-anchor="middle" x="91" y="-977.1646" font-family="Sans-Serif" font-size="11.00" fill="#000000">Network Interface: lan0</text>
<polyline fill="none" stroke="#000000" points="165.5,-965.9646 165.5,-1005.9646 "/>
<text text-anchor="middle" x="218.5" y="-993.1646" font-family="Sans-Serif" font-size="11.00" fill="#000000">TCP: https(443)</text>
<polyline fill="none" stroke="#000000" points="165.5,-985.9646 271.5,-985.9646 "/>
<text text-anchor="middle" x="218.5" y="-973.1646" font-family="Sans-Serif" font-size="11.00" fill="#000000">T1</text>
</a>
</g>
</g>
<!-- 10.222.222.10&#45;&gt;100.41.0.6 -->
<g id="edge1" class="edge">
<title>10.222.222.10:s&#45;&gt;100.41.0.6</title>
<g id="a_edge1"><a xlink:title="Trace: 1:3, 10.222.222.10 &#45;&gt; 100.41.0.6 (RTT: 10.222.222.10 &lt;&#45;&gt; 100.41.0.6 (2.620ms))">
<path fill="none" stroke="#a07070" d="M219,-965.9646C219,-938.3549 219,-906.8294 219,-884.7173"/>
<polygon fill="#a07070" stroke="#a07070" points="222.5001,-884.6769 219,-874.6769 215.5001,-884.677 222.5001,-884.6769"/>
</a>
</g>
<g id="a_edge1&#45;label"><a xlink:title="Trace: 1:3, RTT: 10.222.222.10 &lt;&#45;&gt; 100.41.0.6 (2.620ms)">
<text text-anchor="start" x="219" y="-932.0646" font-family="Times,serif" font-size="8.00" fill="#000000">  2.620ms</text>
</a>
</g>
</g>
<!-- 140.222.227.25 -->
<g id="node8" class="node">
<title>140.222.227.25</title>
<g id="a_node8"><a xlink:title="Hop Host: 140.222.227.25">
<defs>
<linearGradient id="l_9" gradientUnits="userSpaceOnUse" x1="219" y1="-695" x2="219" y2="-659" >
<stop offset="0" style="stop-color:#ffffff;stop-opacity:1.;"/>
<stop offset="1" style="stop-color:#a0a0a0;stop-opacity:1.;"/>
</linearGradient>
</defs>
<ellipse fill="url(#l_9)" stroke="#000000" cx="219" cy="-677" rx="66.2946" ry="18"/>
<text text-anchor="middle" x="219" y="-674.2" font-family="Sans-Serif" font-size="11.00" fill="#000000">140.222.227.25</text>
</a>
</g>
</g>
<!-- Unk0&#45;&gt;140.222.227.25 -->
<g id="edge3" class="edge">
<title>Unk0&#45;&gt;140.222.227.25</title>
<g id="a_edge3"><a xlink:title="Trace: 1:5, Unk0 &#45;&gt; 140.222.227.25 (RTT: 10.222.222.10 &lt;&#45;&gt; 140.222.227.25 (5.511ms))">
<path fill="none" stroke="#a07070" d="M219,-757.6992C219,-744.2023 219,-722.6894 219,-705.2685"/>
<polygon fill="#a07070" stroke="#a07070" points="222.5001,-705.0586 219,-695.0587 215.5001,-705.0587 222.5001,-705.0586"/>
</a>
</g>
<g id="a_edge3&#45;label"><a xlink:title="Trace: 1:5, RTT: 10.222.222.10 &lt;&#45;&gt; 140.222.227.25 (5.511ms)">
<text text-anchor="start" x="219" y="-724.6" font-family="Times,serif" font-size="8.00" fill="#000000">  5.511ms</text>
</a>
</g>
</g>
<!-- 140.222.227.25&#45;&gt;72.14.208.130 -->
<g id="edge4" class="edge">
<title>140.222.227.25&#45;&gt;72.14.208.130</title>
<g id="a_edge4"><a xlink:title="Trace: 1:6, 140.222.227.25 &#45;&gt; 72.14.208.130 (RTT: 10.222.222.10 &lt;&#45;&gt; 72.14.208.130 (10.983ms))">
<path fill="none" stroke="#a07070" d="M219,-658.804C219,-637.7735 219,-602.9094 219,-578.3236"/>
<polygon fill="#a07070" stroke="#a07070" points="222.5001,-578.1622 219,-568.1622 215.5001,-578.1623 222.5001,-578.1622"/>
</a>
</g>
<g id="a_edge4&#45;label"><a xlink:title="Trace: 1:6, RTT: 10.222.222.10 &lt;&#45;&gt; 72.14.208.130 (10.983ms)">
<text text-anchor="start" x="219" y="-625.6" font-family="Times,serif" font-size="8.00" fill="#000000">  10.983ms</text>
</a>
</g>
</g>
</g>
</svg>
